<svg id="e1bfe455-8bbc-428c-88b0-3f2c437368ca" data-name="Layer 1" xmlns="http://www.w3.org/2000/svg" width="418.961" height="266.046" viewBox="0 0 418.961 266.046"><title>ddd-pink</title><path d="M146.112,249.794c2.474-1.378,5.591-2.35,7.65-4.39,9.517-9.433,18.766-19.139,28.057-28.8q6.6-6.865,13.008-13.924a22.342,22.342,0,0,0,6.025-15.435c.119-13.763.466-27.526.9-41.284.173-5.51,2.51-10.158,5.867-14.623a11.645,11.645,0,0,0,1.9-8.7c-.35-1.443-4.979-3.148-7.025-2.539-2.426.722-4.841,3.467-6.051,5.929-4.122,8.389-4.774,17.541-4.738,26.754.041,10.482-.061,20.965.11,31.445.09,5.515.479,10.914-2.541,16-1.772,2.985-3.207,3.386-6.289,1.612-5.753-3.314-6.678-9.1-8.669-14.508a36.343,36.343,0,0,0-4.621-8.306c-.451-.635-3-.734-3.683-.1-7.841,7.21-13.559,15.587-13.561,26.8,0,10.514,0,21.028,0,30.712l-8.116,7.41c0-12.069.993-23.81-.271-35.3-1.343-12.2,4.556-22.47,6.977-33.933-16.466,1.187-32.332,2.145-48.145,3.646-2.817.267-5.644,2.5-8.075,4.336-5.583,4.229-20.118,2.821-25.021-4.3-4.283-6.223,1.1-16.83,9.192-17.851,7.746-.977,15.868-.211,23.3-2.188,13.272-3.53,26.226-8.332,39.165-13.01,10.872-3.932,21.49-8.561,32.3-12.665,10.414-3.952,14.078-9,12.318-19.829-1.44-8.859-4.212-17.494-6.023-26.305-1.4-6.832-5.447-11.355-11.088-14.953-4.239-2.7-7.21-9.722-6.245-14,1.308-5.808,6.313-10.888,12.032-11.383,4.312-.372,8.907-.713,13,.358,7.8,2.041,12.036,8.134,11.069,16.072-1.061,8.711,2.537,15.434,7.748,21.373,7.3,8.32,15.116,16.208,22.994,24a24.948,24.948,0,0,0,17.151,7.231q19.052.458,38.122.018c11-.263,21.979-1.4,32.978-1.659,10.805-.251,21.524-.414,31.757-4.592a117.735,117.735,0,0,1,13.839-4.765c5.373-1.444,12.828,1.668,15.947,6.155a12.358,12.358,0,0,1-.234,14.384c-3.987,5.579-10.185,6.238-16.373,6.306-6.386.071-12.961-1.179-19.118-.04a176.473,176.473,0,0,0-27.215,7.758c-6.462,2.317-12.459,5.932-17.8,8.547,3.3,17.5,6.574,34.4,9.621,51.346,1.181,6.566,2.037,13.2,2.694,19.846,1,10.078-2.761,17.97-10.6,24.6-12.237,10.359-23.921,21.37-35.869,32.072a19.764,19.764,0,0,1-3.964,2.879c-5.133,2.666-9.112.345-9.608-5.534-1.639-19.414-3.792-38.764-9.22-57.547-1.632-5.649-3.269-11.493-8.19-15.584-4.009-3.334-7.765-3.457-11.662.079a38.765,38.765,0,0,0-4.49,4.517c-5.352,6.784-12.256,6.154-19.55,4.49a5.031,5.031,0,0,0-4.043.981c-12.814,12.992-25.464,26.145-38.232,39.184C151.251,252.919,148.845,252.907,146.112,249.794ZM258.84,266.657c3.322-2.811,6.05-5.118,8.777-7.427,7.648-6.475,15.115-13.183,23-19.352,6.011-4.7,11.088-9.883,10.805-17.924-.3-8.62-.591-17.409-2.5-25.754-1.818-7.947-5.35-15.588-8.824-23.04-2.581-5.537-8.123-8.487-12.607-12.424-5.442-4.778-9.2-2.669-13.849-.436a9.056,9.056,0,0,0-2.271,1.393q-13.127,12.163-26.2,24.388l.986,1.122L254.1,172.215c2.808,14.7,4.457,29.809,17.134,40.567,2.783,2.361,3.214,6.638,1.343,10.16-2.85,5.362-8.076,6.744-14.138,7.582-2.249-5.987-4.447-11.841-6.7-17.849-.291.372-.78.721-.737.986,1.452,9.133,2.843,18.279,4.587,27.357a4.746,4.746,0,0,0,3.543,2.83c3.072.066,6.164-.667,9.245-1.1,3.81-.533,7.618-1.085,12.043-1.716-6.429,9.058-15.968,5.821-23.885,7.487C257.3,254.552,258.032,260.314,258.84,266.657ZM244.768,152.59c2.284-1.387,5.486-2.28,6.578-4.309.961-1.786.361-5.431-.958-7.214-2.788-3.77-11-5.631-14.874-3.143-3,1.925-4.13,6.057-1.825,8.765A15.98,15.98,0,0,0,244.768,152.59Z" transform="translate(-20.541 -13.044)" fill="#ffd2dd"/><path d="M291.718,100.921c4.923-9.454,12.467-15.036,20.94-19.27,17.731-8.861,36.759-11.743,56.4-11.032,17.974.652,35.247,4.244,50.843,13.636,8.755,5.272,16.166,11.887,18.827,22.451,2.111,8.384-.243,15.817-5.373,22.158-9.193,11.363-21.991,17.163-35.694,20.886a127.013,127.013,0,0,1-48.052,3.695,62.018,62.018,0,0,1-12.331-2.573c5.62.365,11.263.527,16.857,1.138,11.466,1.251,22.646-.722,33.643-3.311,10.337-2.434,20.127-6.613,28.363-13.619C431.749,121.806,430.5,104.4,414.656,92.4c-12.966-9.814-27.859-13.617-43.7-15.583a111.788,111.788,0,0,0-43.836,3.318c-12.55,3.471-24.724,8.8-32.851,20.117C294.015,100.607,293.2,100.555,291.718,100.921Z" transform="translate(-20.541 -13.044)" fill="#ffd2dd"/><path d="M229.052,85.96c4.462-4.274,9.336-8.21,13.323-12.9,10.9-12.812,5.117-27.463-6.033-36.114C220.793,24.882,202.5,21.162,183.4,20.184a104.528,104.528,0,0,0-48.681,8.954c-10.117,4.544-19.245,10.984-23.129,22.377-3.571,10.476,1.359,20.151,10.212,27.845,7.879,6.847,22.549,12.676,32.284,15.085-3.566-.68-7.281-.936-10.673-2.117-12.766-4.443-25.415-9.476-33.879-20.7-8.984-11.918-8.666-24.177,2.78-36,11.858-12.245,27.179-17.521,43.251-20.4,24.209-4.337,48.181-2.385,70.891,7.36,11.54,4.951,22.027,12.045,26.517,24.985,3.326,9.582.709,18.155-5.806,25.065-4.851,5.145-11.132,8.946-16.822,13.284C229.97,86.205,229.2,85.96,229.052,85.96Z" transform="translate(-20.541 -13.044)" fill="#ffd2dd"/><path d="M124.484,141.571c-2.52,0-5.308.713-7.517-.116-13.7-5.145-27.882-6.027-42.1-4.224-14.561,1.848-28.754,5.275-39.65,16.477-11.135,11.448-8.157,24.559,3.127,33.208,13.534,10.374,29.516,13.657,46.3,13.944,14.984.256,29.376-2.069,42.74-9.163,3.071-1.63,5.923-3.674,9.5-4.686a62.158,62.158,0,0,1-6.777,4.828c-17.652,9.412-36.488,12.043-56.272,10.146-10.506-1.008-20.669-3.07-30.135-7.615-10.262-4.928-19.69-10.9-22.591-23.24-1.856-7.893,1-14.284,6.25-19.573C42.61,136.18,62.028,132.6,82.716,132.1a104.739,104.739,0,0,1,34.132,4.59c2.7.844,5.3,2.022,7.946,3.046Z" transform="translate(-20.541 -13.044)" fill="#ffd2dd"/><path d="M243.276,246.381c-22.318-3.376-38.635-17.546-35.906-27.459,1.892,3.357,3.332,7.125,5.789,10.035,6.149,7.284,14.625,10.746,23.7,12.81C239.431,242.354,241.683,243.016,243.276,246.381Z" transform="translate(-20.541 -13.044)" fill="#ffd2dd"/><path d="M294.746,199.261l-28.776-9.212.4-1.4c8.488,2.377,17.014,4.632,25.424,7.256C293.162,196.335,294.02,198.394,294.746,199.261Z" transform="translate(-20.541 -13.044)" fill="#ffd2dd"/></svg>