<svg id="fc9f509e-7cd6-4fc8-a623-ed7e3a6ca770" data-name="logoipsum" xmlns="http://www.w3.org/2000/svg" width="117.677" height="23.618" viewBox="0 0 117.677 23.618"><title>logo_pink</title><path d="M67.88,57.39a2.652,2.652,0,0,1-1.67-.48,1.559,1.559,0,0,1-.63-1.31V46.33a.26.26,0,0,1,.226-.29.229.229,0,0,1,.064,0h1.68c.19,0,.28.1.28.29v8.55c0,.38.17.57.52.57a1.452,1.452,0,0,0,.44-.05c.2,0,.31.06.32.24l.15,1.25a.261.261,0,0,1-.2.306l-.035,0A3.743,3.743,0,0,1,67.88,57.39Z" transform="translate(-30.05 -38.182)" fill="#394149"/><path d="M77.33,56.32a4.709,4.709,0,0,1-6,0,4,4,0,0,1,0-5.63,4.729,4.729,0,0,1,6,0,4.06,4.06,0,0,1,0,5.62ZM72.91,55a2.13,2.13,0,0,0,2.86,0,2.24,2.24,0,0,0,0-2.94,2.13,2.13,0,0,0-2.86,0A2.24,2.24,0,0,0,72.91,55Z" transform="translate(-30.05 -38.182)" fill="#394149"/><path d="M87.71,49.87c.19,0,.28.1.28.29v7.17a3.26,3.26,0,0,1-1.11,2.57,4.2,4.2,0,0,1-2.91,1,4.676,4.676,0,0,1-2.71-.75,3,3,0,0,1-1.31-2c0-.2,0-.29.27-.29H81.9a.37.37,0,0,1,.33.23,1.307,1.307,0,0,0,.61.71,2.344,2.344,0,0,0,1.12.26,1.772,1.772,0,0,0,1.29-.46,1.7,1.7,0,0,0,.47-1.25v-.63a3.356,3.356,0,0,1-2.08.65,3.88,3.88,0,0,1-2.84-1.09,4,4,0,0,1,0-5.56,3.908,3.908,0,0,1,2.84-1.08,3.36,3.36,0,0,1,2.13.69v-.16A.26.26,0,0,1,86,49.881a.313.313,0,0,1,.053,0Zm-3.88,5.72A1.76,1.76,0,0,0,85.2,55a2.449,2.449,0,0,0,0-3,1.748,1.748,0,0,0-1.36-.58,1.8,1.8,0,0,0-1.39.59,2.122,2.122,0,0,0-.54,1.5A2.159,2.159,0,0,0,82.44,55,1.81,1.81,0,0,0,83.83,55.59Z" transform="translate(-30.05 -38.182)" fill="#394149"/><path d="M96.62,56.32a4.729,4.729,0,0,1-6,0,4.071,4.071,0,0,1,0-5.63,4.74,4.74,0,0,1,6,0,4.06,4.06,0,0,1,0,5.62ZM92.19,55a2.147,2.147,0,0,0,2.87,0,2.271,2.271,0,0,0,0-2.94,2.147,2.147,0,0,0-2.87,0A2.271,2.271,0,0,0,92.19,55Z" transform="translate(-30.05 -38.182)" fill="#394149"/><path d="M101.36,48.17a1.449,1.449,0,0,1-1.91,0,1.21,1.21,0,0,1-.05-1.71l.05-.05a1.48,1.48,0,0,1,1.91,0,1.21,1.21,0,0,1,.05,1.71Zm.21,9.22a2.693,2.693,0,0,1-1.67-.48,1.579,1.579,0,0,1-.62-1.31V50.16a.26.26,0,0,1,.226-.29.229.229,0,0,1,.064,0h1.68c.19,0,.28.1.28.29v4.72q0,.57.51.57a1.551,1.551,0,0,0,.45-.05c.2,0,.31.06.32.24l.15,1.25a.261.261,0,0,1-.2.306l-.035,0A3.806,3.806,0,0,1,101.57,57.39Z" transform="translate(-30.05 -38.182)" fill="#394149"/><path d="M109.14,49.63A3.921,3.921,0,0,1,112,50.71a4.1,4.1,0,0,1,0,5.59,3.888,3.888,0,0,1-2.86,1.09,3.44,3.44,0,0,1-2.09-.65v3.61c0,.19-.1.28-.29.28h-1.68a.241.241,0,0,1-.28-.192.26.26,0,0,1,0-.088v-8.2a.52.52,0,0,0-.439-.59.546.546,0,0,0-.151,0h-.33q-.33,0-.33-.24V50.14a.32.32,0,0,1,.23-.33,2.99,2.99,0,0,1,1.08-.18,1.85,1.85,0,0,1,1.81,1A3.368,3.368,0,0,1,109.14,49.63ZM107.58,55a1.91,1.91,0,0,0,2.7.06l.06-.06a2.158,2.158,0,0,0,.55-1.53,2.132,2.132,0,0,0-.55-1.53,1.91,1.91,0,0,0-2.7-.06q-.032.03-.06.06a2.211,2.211,0,0,0-.53,1.53A2.243,2.243,0,0,0,107.58,55Z" transform="translate(-30.05 -38.182)" fill="#394149"/><path d="M117.82,57.39a4.82,4.82,0,0,1-2.57-.62A2.438,2.438,0,0,1,114.09,55c0-.2.07-.3.29-.3h1.47a.381.381,0,0,1,.33.22c.21.54.76.81,1.64.81a1.872,1.872,0,0,0,.89-.18.579.579,0,0,0,.34-.49c0-.26-.16-.44-.48-.56a5.447,5.447,0,0,0-1.17-.25A11.063,11.063,0,0,1,116,54a2.3,2.3,0,0,1-1.17-.67,2.14,2.14,0,0,1,.311-3.01c.039-.032.078-.061.119-.09a4.119,4.119,0,0,1,2.42-.64,4.416,4.416,0,0,1,2.36.59,2.233,2.233,0,0,1,1.1,1.57q0,.3-.27.3h-1.48a.309.309,0,0,1-.3-.18,1,1,0,0,0-.52-.53,1.762,1.762,0,0,0-.86-.2,1.744,1.744,0,0,0-.85.17.5.5,0,0,0-.32.46.64.64,0,0,0,.48.59,5.422,5.422,0,0,0,1.19.3,13.083,13.083,0,0,1,1.39.26,2.3,2.3,0,0,1,1.17.67,1.888,1.888,0,0,1,.49,1.37,2,2,0,0,1-.93,1.74A4.37,4.37,0,0,1,117.82,57.39Z" transform="translate(-30.05 -38.182)" fill="#394149"/><path d="M131.83,56.89a.27.27,0,0,1-.224.309H131.6a3.874,3.874,0,0,1-1.13.19,2.22,2.22,0,0,1-2-.87,3.621,3.621,0,0,1-2.55.87,3.1,3.1,0,0,1-2.34-.91,3.282,3.282,0,0,1-.89-2.41V50.16c0-.19.09-.29.28-.29h1.68c.19,0,.28.1.28.29v3.61a1.768,1.768,0,0,0,.43,1.23,1.5,1.5,0,0,0,1.15.47,1.661,1.661,0,0,0,1.2-.44,1.6,1.6,0,0,0,.45-1.19V50.16c0-.19.09-.29.28-.29h1.7c.19,0,.28.1.28.29v4.71c0,.39.17.58.5.58a1.585,1.585,0,0,0,.46-.05.261.261,0,0,1,.321.18.311.311,0,0,1,.009.06Z" transform="translate(-30.05 -38.182)" fill="#394149"/><path d="M147.72,56.89a.25.25,0,0,1-.182.3.265.265,0,0,1-.048.007,3.875,3.875,0,0,1-1.15.19,2.666,2.666,0,0,1-1.67-.48A1.559,1.559,0,0,1,144,55.6V53.25a1.771,1.771,0,0,0-.42-1.23,1.421,1.421,0,0,0-1.12-.47,1.252,1.252,0,0,0-1,.44,1.779,1.779,0,0,0-.38,1.18v3.69c0,.19-.09.29-.28.29h-1.69a.26.26,0,0,1-.29-.226.229.229,0,0,1,0-.064V53.25a1.851,1.851,0,0,0-.39-1.23,1.3,1.3,0,0,0-1-.47,1.446,1.446,0,0,0-1.1.44,1.65,1.65,0,0,0-.41,1.18v3.69a.26.26,0,0,1-.226.29.229.229,0,0,1-.064,0H134c-.19,0-.28-.1-.28-.29V52.15a.52.52,0,0,0-.439-.59.546.546,0,0,0-.151,0h-.33q-.33,0-.33-.24V50.14a.32.32,0,0,1,.23-.33,2.99,2.99,0,0,1,1.08-.18,1.88,1.88,0,0,1,1.78.92,3.38,3.38,0,0,1,2.54-.92,2.868,2.868,0,0,1,2.37,1.06,3.3,3.3,0,0,1,2.62-1.06,3.163,3.163,0,0,1,2.37.91,3.26,3.26,0,0,1,.89,2.41v1.93c0,.38.17.57.49.57a1.519,1.519,0,0,0,.46-.05q.31,0,.33.24Z" transform="translate(-30.05 -38.182)" fill="#394149"/><path d="M30.46,48.57a13.69,13.69,0,0,1,26.57,0h-1.2a9.688,9.688,0,0,0-5.67,1.73,2.918,2.918,0,0,1-.3.19h-.14a2.918,2.918,0,0,1-.3-.19,10.172,10.172,0,0,0-11.35,0,2.918,2.918,0,0,1-.3.19h-.14a2.918,2.918,0,0,1-.3-.19,9.688,9.688,0,0,0-5.67-1.73Zm23.21,6.27a3.366,3.366,0,0,1,2.16-.71h1.61V50.92H55.83A6.376,6.376,0,0,0,52,52.14a3.64,3.64,0,0,1-4.32,0,6.8,6.8,0,0,0-7.77,0,3.64,3.64,0,0,1-4.32,0,6.378,6.378,0,0,0-3.88-1.22H30.05v3.21h1.61a3.366,3.366,0,0,1,2.16.71,6.779,6.779,0,0,0,7.76,0,3.393,3.393,0,0,1,2.16-.71,3.353,3.353,0,0,1,2.16.71A6.8,6.8,0,0,0,53.67,54.84Zm0,5.74a3.366,3.366,0,0,1,2.16-.71h1.61V56.66H55.83A6.376,6.376,0,0,0,52,57.88a3.64,3.64,0,0,1-4.32,0,6.8,6.8,0,0,0-7.77,0,3.64,3.64,0,0,1-4.32,0,6.378,6.378,0,0,0-3.88-1.22H30.05v3.21h1.61a3.366,3.366,0,0,1,2.16.71,6.779,6.779,0,0,0,7.76,0,3.393,3.393,0,0,1,2.16-.71,3.353,3.353,0,0,1,2.16.71A6.8,6.8,0,0,0,53.67,60.58Z" transform="translate(-30.05 -38.182)" fill="#ffd2dd"/></svg>